<?xml version="1.0" standalone="no"?>
<!DOCTYPE svg PUBLIC "-//W3C//DTD SVG 20010904//EN"
 "http://www.w3.org/TR/2001/REC-SVG-20010904/DTD/svg10.dtd">
<svg version="1.0" xmlns="http://www.w3.org/2000/svg"
 width="210.000000pt" height="280.000000pt" viewBox="0 0 210.000000 280.000000"
 preserveAspectRatio="xMidYMid meet">
<metadata>
Created by potrace 1.16, written by Peter Selinger 2001-2019
</metadata>
<g transform="translate(0.000000,280.000000) scale(0.100000,-0.100000)"
fill="#000000" stroke="none">
<path d="M0 2105 c0 -382 4 -695 9 -695 4 0 11 38 13 85 6 96 25 137 78 172
18 13 48 23 66 23 18 0 36 5 39 10 3 6 48 10 99 10 l94 0 4 258 c4 176 9 268
18 292 18 46 49 88 72 96 10 3 29 21 42 41 30 43 77 73 116 73 16 0 32 5 35
10 3 6 15 10 26 10 10 0 19 4 19 10 0 5 19 23 42 40 23 17 51 45 64 63 37 55
96 72 244 72 142 0 202 -16 244 -66 21 -24 32 -29 72 -29 26 0 76 -5 111 -11
60 -11 67 -15 143 -90 44 -43 85 -91 91 -106 6 -15 13 -65 16 -111 6 -80 8
-86 47 -131 23 -26 60 -64 83 -85 35 -31 44 -47 56 -101 12 -50 23 -72 50 -97
60 -57 62 -72 62 -578 0 -502 -2 -519 -60 -577 -29 -29 -33 -41 -39 -105 -10
-106 -24 -148 -60 -184 -31 -31 -33 -39 -40 -121 -9 -119 -34 -169 -101 -203
l-50 -25 -525 0 -525 0 -50 25 c-67 33 -93 85 -102 201 -5 77 -9 87 -39 121
-31 34 -54 90 -54 131 0 9 -18 37 -40 61 -33 36 -43 56 -52 105 -9 45 -18 65
-35 76 -29 19 -50 60 -64 124 -7 34 -22 63 -44 87 -18 19 -37 40 -42 45 -4 5
-27 27 -49 48 -49 46 -64 97 -65 227 0 46 -4 84 -7 84 -4 0 -9 -313 -11 -695
l-3 -695 1051 0 1051 0 0 1400 0 1400 -1050 0 -1050 0 0 -695z"/>
<path d="M988 2438 l-3 -43 -47 -3 -48 -3 0 -50 0 -49 -100 0 -100 0 0 -50 0
-50 -45 0 -45 0 0 -385 0 -385 -50 0 -50 0 0 45 0 45 -145 0 -145 0 0 -145 0
-145 44 0 45 0 3 -47 3 -48 48 -3 47 -3 0 -95 0 -94 50 0 50 0 0 -100 0 -100
50 0 50 0 0 -95 0 -95 45 0 44 0 3 -147 3 -148 485 0 485 0 3 148 3 147 44 0
45 0 0 145 0 145 50 0 50 0 0 440 0 440 -50 0 -50 0 0 95 0 95 -45 0 -45 0 0
50 0 50 -50 0 -50 0 0 145 0 145 -50 0 -50 0 0 50 0 50 -145 0 -145 0 0 45 0
45 -94 0 -95 0 -3 -42z m194 -535 l3 -488 45 0 45 0 3 438 2 437 95 0 95 0 0
-485 0 -485 50 0 50 0 0 290 0 290 50 0 50 0 0 -95 0 -95 45 0 45 0 0 -440 0
-440 -45 0 -45 0 0 -145 0 -145 -50 0 -50 0 0 -95 0 -95 -390 0 -390 0 0 95 0
95 -50 0 -50 0 0 100 0 100 -45 0 -45 0 0 95 0 95 -50 0 -49 0 -3 97 -3 97
-45 0 -45 1 -3 47 -3 47 -47 3 -47 3 -3 93 -3 92 101 0 100 0 0 -45 0 -45 45
0 45 0 0 -145 0 -145 50 0 50 0 0 580 0 580 100 0 100 0 0 -391 0 -390 48 3
47 3 3 488 2 487 95 0 95 0 2 -487z"/>
</g>
</svg>
