<?xml version="1.0" standalone="no"?>
<!DOCTYPE svg PUBLIC "-//W3C//DTD SVG 20010904//EN"
 "http://www.w3.org/TR/2001/REC-SVG-20010904/DTD/svg10.dtd">
<svg version="1.0" xmlns="http://www.w3.org/2000/svg"
 width="193.000000pt" height="209.000000pt" viewBox="0 0 193.000000 209.000000"
 preserveAspectRatio="xMidYMid meet">
<metadata>
Created by potrace 1.16, written by Peter Selinger 2001-2019
</metadata>
<g transform="translate(0.000000,209.000000) scale(0.100000,-0.100000)"
fill="#000000" stroke="none">
<path d="M0 1045 l0 -1045 965 0 965 0 -1 418 c0 355 -2 410 -13 370 -7 -26
-28 -64 -48 -86 -32 -36 -35 -45 -40 -118 -7 -92 -27 -150 -65 -180 -23 -20
-27 -31 -34 -117 -11 -127 -28 -160 -109 -203 -33 -18 -66 -19 -565 -19 l-530
0 -48 24 c-64 32 -86 75 -98 196 -9 86 -12 95 -44 129 -26 28 -37 51 -46 97
-9 48 -19 68 -44 90 -31 29 -55 84 -55 128 0 11 -15 38 -34 58 -18 21 -38 48
-45 60 -33 64 -38 443 -7 547 11 34 33 64 91 122 l78 78 8 86 c4 47 13 99 19
116 12 31 140 163 177 182 12 7 35 12 52 12 16 0 33 5 36 10 8 14 772 14 780
0 3 -5 23 -10 43 -10 42 0 107 -38 117 -69 3 -11 22 -29 41 -40 19 -11 44 -36
55 -56 12 -19 25 -35 30 -35 5 0 70 -60 144 -134 113 -114 135 -141 140 -173
4 -21 8 -45 10 -53 1 -8 3 137 4 323 l1 337 -965 0 -965 0 0 -1045z"/>
<path d="M570 1765 l0 -45 -50 0 -50 0 0 -144 0 -145 -47 -3 -48 -3 -3 -47 -3
-48 -45 0 -44 0 0 -195 0 -195 45 0 44 0 3 -97 3 -98 48 -3 47 -3 0 -95 0 -94
50 0 49 0 3 -147 3 -148 480 0 480 0 3 147 3 148 49 0 50 0 0 145 0 145 50 0
50 0 -2 293 -3 292 -47 3 -48 3 0 45 0 44 -50 0 -50 0 0 49 0 50 -47 3 -48 3
-3 48 -3 47 -45 0 -44 0 0 45 0 45 -100 0 -100 0 0 -45 0 -45 -50 0 -50 0 0
45 0 45 -95 0 -95 0 0 -45 0 -45 -50 0 -50 0 0 45 0 45 -95 0 -95 0 0 -45z
m192 -192 l3 -148 45 0 45 0 3 148 3 147 94 0 94 0 3 -147 3 -148 48 -3 47 -3
0 151 0 151 98 -3 97 -3 3 -193 2 -193 48 3 47 3 3 93 3 92 44 0 44 0 3 -47 3
-48 48 -3 47 -3 0 -290 0 -289 -50 0 -50 0 0 -145 0 -145 -50 0 -50 0 0 -95 0
-95 -385 0 -385 0 0 95 0 95 -50 0 -49 0 -3 98 -3 97 -47 3 -48 3 0 95 0 94
-50 0 -50 0 0 195 0 195 50 0 50 0 0 -145 0 -145 50 0 50 0 0 340 0 340 95 0
94 0 3 -147z"/>
</g>
</svg>
