<?xml version="1.0" standalone="no"?>
<!DOCTYPE svg PUBLIC "-//W3C//DTD SVG 20010904//EN"
 "http://www.w3.org/TR/2001/REC-SVG-20010904/DTD/svg10.dtd">
<svg version="1.0" xmlns="http://www.w3.org/2000/svg"
 width="196.000000pt" height="266.000000pt" viewBox="0 0 196.000000 266.000000"
 preserveAspectRatio="xMidYMid meet">
<metadata>
Created by potrace 1.16, written by Peter Selinger 2001-2019
</metadata>
<g transform="translate(0.000000,266.000000) scale(0.100000,-0.100000)"
fill="#000000" stroke="none">
<path d="M0 1330 l0 -1330 980 0 980 0 0 1330 0 1330 -980 0 -980 0 0 -1330z
m605 1219 c17 -7 56 -37 87 -66 74 -69 92 -69 166 0 80 75 102 82 262 81 165
0 180 -6 283 -108 68 -68 76 -80 87 -132 8 -35 11 -119 8 -223 -3 -144 -6
-172 -25 -214 -33 -71 -20 -92 66 -108 65 -12 67 -13 168 -113 56 -56 115
-113 131 -128 50 -46 57 -97 57 -428 0 -334 -8 -388 -65 -432 -27 -21 -30 -30
-39 -114 -11 -103 -28 -152 -63 -180 -21 -16 -25 -33 -35 -122 -14 -125 -31
-158 -98 -192 l-50 -25 -493 -3 c-521 -3 -572 0 -634 41 -47 32 -68 81 -75
182 -6 83 -8 90 -44 131 -30 34 -40 56 -45 96 -6 40 -15 59 -44 89 -35 37 -60
93 -60 138 0 12 -13 34 -29 49 -58 52 -65 86 -69 314 -5 262 3 306 65 368 l45
45 -11 98 c-6 54 -11 129 -11 167 0 60 -3 71 -21 81 -11 6 -31 32 -42 57 -20
43 -22 64 -22 232 0 130 4 196 13 223 16 43 138 172 180 189 15 6 43 14 62 19
52 12 260 4 295 -12z"/>
<path d="M340 2330 l0 -50 -50 0 -50 0 0 -145 0 -145 50 0 50 0 0 -195 0 -195
45 0 45 0 0 -95 0 -95 -45 0 -45 0 0 -50 0 -50 -50 0 -50 0 0 -195 0 -195 50
0 50 0 0 -100 0 -100 45 0 45 0 0 -95 0 -95 50 0 49 0 3 -147 3 -148 485 0
485 0 2 145 1 145 46 3 46 3 0 145 0 144 50 0 50 0 0 295 0 295 -50 0 -50 0 0
45 0 45 -44 0 -45 0 -3 48 -3 47 -97 3 -98 3 0 49 0 50 -50 0 -50 0 0 145 0
145 50 0 50 0 0 145 0 145 -50 0 -50 0 0 50 0 50 -95 0 -95 0 0 -50 0 -50 -50
0 -50 0 0 -145 0 -145 -50 0 -50 0 0 -145 0 -145 -45 0 -44 0 -3 143 -3 142
-47 3 -48 3 0 145 0 144 -50 0 -50 0 0 50 0 50 -95 0 -95 0 0 -50z m190 -195
l0 -145 50 0 50 0 0 -145 0 -145 45 0 44 0 3 -147 3 -148 47 -3 47 -3 3 148 3
148 48 3 47 3 0 145 0 144 50 0 50 0 0 145 0 145 95 0 95 0 0 -144 0 -145 -47
-3 -48 -3 -3 -142 -3 -143 -44 0 -45 0 0 -151 0 -150 48 3 47 3 3 98 3 97 94
0 95 0 0 -145 0 -145 50 0 50 0 0 95 0 95 44 0 45 0 3 -47 3 -48 48 -3 47 -3
0 -290 0 -289 -50 0 -50 0 0 -145 0 -145 -45 0 -45 0 0 -95 0 -95 -390 0 -390
0 0 95 0 95 -50 0 -49 0 -3 98 -3 97 -47 3 -48 3 0 95 0 94 -45 0 -45 0 0 195
0 195 45 0 45 0 0 -144 0 -144 46 -4 c25 -2 47 -1 50 1 2 2 4 134 4 292 l0
288 -47 3 -48 3 -3 193 -2 192 -45 0 -45 0 0 145 0 145 95 0 95 0 0 -145z"/>
</g>
</svg>
